<?xml version="1.0" encoding="utf-8"?>
<!-- Generator: Adobe Illustrator 24.2.3, SVG Export Plug-In . SVG Version: 6.00 Build 0)  -->
<svg version="1.1" id="Layer_1" xmlns="http://www.w3.org/2000/svg" xmlns:xlink="http://www.w3.org/1999/xlink" x="0px"
  y="0px" viewBox="0 0 442.6 175" style="enable-background: new 0 0 442.6 175" xml:space="preserve">
  <style type="text/css">
    .st0 {
      fill: #ffb81c;
    }

    .st1 {
      fill: #ffffff;
    }

    .st2 {
      fill: #ababab;
    }
  </style>
  <g>
    <g>
      <path class="st0"
        d="M61.7,56.9c-2,6-8.5,9.3-14.6,7.3c-6-2-9.3-8.5-7.3-14.6s8.5-9.3,14.6-7.3C60.5,44.3,63.7,50.9,61.7,56.9z" />
      <path class="st0"
        d="M88.8,43.9c-1.7,5.2-7.4,8-12.6,6.3c-5.2-1.7-8-7.4-6.3-12.6s7.4-8,12.6-6.3C87.7,33,90.5,38.7,88.8,43.9z" />
      <path class="st0" d="M114.7,41.4c-1.4,4.3-6,6.6-10.3,5.2c-4.3-1.4-6.6-6-5.2-10.3s6-6.6,10.3-5.2
			C113.8,32.5,116.2,37.2,114.7,41.4z" />
      <path class="st0" d="M133,55.2c-1.1,3.3-4.7,5.1-8,4c-3.3-1.1-5.1-4.7-4-7.9c1.1-3.3,4.7-5.1,8-4C132.3,48.3,134.1,51.9,133,55.2z
			" />
      <path class="st0" d="M142.1,72.2c-0.6,1.9-2.7,3-4.7,2.3c-1.9-0.6-3-2.7-2.3-4.7c0.6-1.9,2.7-3,4.7-2.3
			C141.7,68.1,142.7,70.2,142.1,72.2z" />
      <g>
        <path class="st1" d="M32.8,118.7c-1.3,0-3.5-0.2-5.4-0.4v11.3c0,0.7-0.6,1.3-1.3,1.3h-7.9c-0.7,0-1.4-0.6-1.4-1.3V83.5
				c0-1,0.3-1.5,2-1.9c3.7-0.9,8.9-1.7,14-1.7c10.6,0,16.5,6.2,16.5,16.8v5.1C49.3,112.2,43.9,118.7,32.8,118.7z M38.6,96.8
				c0-4.7-1.2-8-5.8-8c-2.2,0-4.1,0.1-5.4,0.3v20.6c1.6,0.2,3.8,0.4,5.4,0.4c4.7,0,5.8-3.5,5.8-8.1V96.8z" />
      </g>
      <g>
        <path class="st1" d="M81.6,102.6H60.6v0.1c0,3.7,1.6,7.2,6.8,7.2c4.1,0,10-0.3,12.6-0.6c0.1,0,0.1,0,0.2,0c0.7,0,1.3,0.3,1.3,1.1
				v5c0,1.1-0.3,1.5-1.4,1.8c-4.2,1.1-7.7,1.6-13.4,1.6c-7.9,0-16.5-4.2-16.5-16.9v-4.6c0-10.6,6.2-17.2,16.6-17.2
				C77.6,80,83,87.3,83,97.3v3.8C82.9,102,82.4,102.6,81.6,102.6z M72.6,95.8c0-4.8-2.2-7.3-5.9-7.3c-3.6,0-6,2.5-6,7.3v0.3h11.9
				V95.8z" />
      </g>
      <g>
        <path class="st1" d="M101,118.7c-1.3,0-3.5-0.2-5.4-0.4v11.3c0,0.7-0.6,1.3-1.3,1.3h-7.9c-0.7,0-1.4-0.6-1.4-1.3V83.5
				c0-1,0.3-1.5,2-1.9c3.7-0.9,8.9-1.7,14-1.7c10.6,0,16.5,6.2,16.5,16.8v5.1C117.4,112.2,112.1,118.7,101,118.7z M106.8,96.8
				c0-4.7-1.2-8-5.8-8c-2.2,0-4.1,0.1-5.4,0.3v20.6c1.6,0.2,3.8,0.4,5.4,0.4c4.7,0,5.8-3.5,5.8-8.1V96.8z" />
      </g>
      <path class="st2" d="M128.7,118.1h-8c-0.7,0-1.4-0.7-1.4-1.4V69c0-0.7,0.7-1.3,1.4-1.3h8c0.7,0,1.2,0.6,1.2,1.3v47.7
			C129.9,117.5,129.4,118.1,128.7,118.1z" />
      <path class="st2" d="M142.6,118.1h-8c-0.7,0-1.3-0.6-1.3-1.3v-35c0-0.7,0.6-1.3,1.3-1.3h8c0.7,0,1.3,0.6,1.3,1.3v35.1
			C143.9,117.5,143.3,118.1,142.6,118.1z" />
      <path class="st2" d="M178,118.1h-7.9c-0.7,0-1.3-0.7-1.3-1.4V94.9c0-4.6-0.9-6.1-4.9-6.1c-1.9,0-3.9,0.9-6.2,2.1v25.9
			c0,0.7-0.6,1.4-1.3,1.4h-7.9c-0.7,0-1.4-0.7-1.4-1.4V81.8c0-0.7,0.6-1.3,1.3-1.3h7.4c0.7,0,1.3,0.6,1.3,1.3v1.6
			c3.6-2.6,6.5-3.4,10.7-3.4c9.5,0,11.6,6.6,11.6,14.9v21.9C179.4,117.5,178.7,118.1,178,118.1z" />
      <path class="st2" d="M214.8,81.8l-12.2,16.6l12.1,18.2c0.1,0.1,0.1,0.3,0.1,0.5c0,0.5-0.3,0.8-0.9,0.8H204c-0.7,0-1.1-0.1-1.6-0.9
			l-9.4-15.4v15c0,0.7-0.6,1.4-1.3,1.4h-7.9c-0.7,0-1.4-0.7-1.4-1.4V69c0-0.7,0.6-1.3,1.4-1.3h7.9c0.7,0,1.3,0.6,1.3,1.3v27.5l10-15
			c0.5-0.8,1.2-1,1.7-1h9.4c0.6,0,1,0.3,1,0.7C215.1,81.4,215,81.6,214.8,81.8z" />
    </g>
  </g>
  <g>
    <path class="st0" d="M245.2,117.3c-3.9,0-7.1-1.2-9.8-3.6c-2.6-2.4-4-5.8-4-10c0-4,1.2-7.3,3.7-9.9c2.4-2.6,5.8-3.9,10.1-3.9
		c2,0,3.9,0.4,5.8,1.3c1.9,0.9,3.5,2.1,4.9,3.9l-3.9,3.3c-1.9-2.3-4.2-3.4-6.8-3.4c-2.4,0-4.3,0.8-5.9,2.4c-1.5,1.6-2.3,3.7-2.3,6.4
		c0,2.5,0.8,4.6,2.3,6.2c1.5,1.6,3.5,2.4,5.9,2.4c2.7,0,5-1.1,6.8-3.4l3.9,3.4C253.2,115.6,249.6,117.3,245.2,117.3z" />
    <path class="st0" d="M266.9,117.3c-2.9,0-5.3-0.9-7.1-2.7c-1.8-1.8-2.7-4.1-2.7-6.9c0-2.8,0.9-5.1,2.7-6.9c1.8-1.8,4.2-2.7,7.1-2.7
		c2.9,0,5.2,0.9,7.1,2.7c1.8,1.8,2.8,4.1,2.8,6.9c0,2.8-0.9,5.1-2.8,6.9C272.1,116.4,269.8,117.3,266.9,117.3z M266.9,112.9
		c1.4,0,2.5-0.5,3.4-1.4c0.9-1,1.4-2.2,1.4-3.7c0-1.5-0.5-2.7-1.4-3.7c-0.9-0.9-2.1-1.4-3.4-1.4c-1.4,0-2.6,0.5-3.5,1.5
		c-0.9,1-1.3,2.2-1.3,3.7c0,1.4,0.5,2.7,1.4,3.6C264.4,112.4,265.5,112.9,266.9,112.9z" />
    <path class="st0" d="M301.9,98.2c4.3,0,6.5,2.7,6.5,8V117h-5v-9.5c0-3.2-1.1-4.8-3.2-4.8c-1.1,0-2,0.4-2.7,1.3
		c-0.7,0.9-1.1,2.2-1.1,3.8v9.2h-5v-9.5c0-3.2-1.1-4.8-3.3-4.8c-1.2,0-2.1,0.4-2.8,1.3c-0.7,0.9-1.1,2.2-1.1,3.8v9.2h-5V98.5h5v2.5
		h0c1.5-1.8,3.3-2.8,5.5-2.8c2.6,0,4.4,1,5.5,3h0.1C297,99.2,299.2,98.2,301.9,98.2z" />
    <path class="st0" d="M334.4,98.2c4.3,0,6.5,2.7,6.5,8V117h-5v-9.5c0-3.2-1.1-4.8-3.2-4.8c-1.1,0-2,0.4-2.7,1.3
		c-0.7,0.9-1.1,2.2-1.1,3.8v9.2h-5v-9.5c0-3.2-1.1-4.8-3.3-4.8c-1.2,0-2.1,0.4-2.8,1.3c-0.7,0.9-1.1,2.2-1.1,3.8v9.2h-5V98.5h5v2.5
		h0c1.5-1.8,3.3-2.8,5.5-2.8c2.6,0,4.4,1,5.5,3h0.1C329.5,99.2,331.6,98.2,334.4,98.2z" />
    <path class="st0" d="M356.3,98.5h5V117h-5v-2.3h-0.1c-1.4,1.7-3.2,2.6-5.5,2.6c-4.5,0-6.8-2.5-6.8-7.7V98.5h4.9v9.8
		c0,1.7,0.3,2.8,0.8,3.5c0.5,0.7,1.4,1,2.6,1c1.1,0,2.1-0.5,2.9-1.4c0.8-0.9,1.2-2.3,1.2-4V98.5z" />
    <path class="st0" d="M375.7,98.2c4.5,0,6.7,2.6,6.7,7.8v11h-5v-9.7c0-1.7-0.3-2.9-0.9-3.6c-0.6-0.7-1.5-1-2.7-1
		c-1.3,0-2.3,0.4-3.1,1.3c-0.8,0.9-1.1,2.1-1.1,3.7v9.3h-5V98.5h5v2.4h0.1C371.3,99.1,373.3,98.2,375.7,98.2z" />
    <path class="st0" d="M388.6,95.9c-0.8,0-1.6-0.3-2.2-0.9c-0.6-0.6-0.9-1.3-0.9-2.1c0-0.8,0.3-1.5,0.9-2.1c0.6-0.6,1.3-0.9,2.2-0.9
		c0.9,0,1.6,0.3,2.2,0.9c0.6,0.6,0.9,1.3,0.9,2.1c0,0.8-0.3,1.5-0.9,2.1C390.2,95.6,389.4,95.9,388.6,95.9z M386.1,117V98.5h5V117
		H386.1z" />
    <path class="st0" d="M401.9,117.3c-1.6,0-2.9-0.5-3.9-1.6c-0.9-1-1.4-2.6-1.4-4.6v-8.6h-2.2v-4.1h2.2v-6.1l4.9-0.5v6.6h5v4.1h-5
		v7.9c0,1.6,0.5,2.3,1.6,2.3c0.7,0,1.5-0.2,2.3-0.6l1.3,4C405.4,116.9,403.8,117.3,401.9,117.3z" />
    <path class="st0" d="M422.4,98.5h5.2l-10,26h-5.1l3.3-8.6l-7.3-17.3h5.2l4.5,11.4h0L422.4,98.5z" />
  </g>
</svg>