<svg id="rar" xmlns="http://www.w3.org/2000/svg" width="24" height="24" viewBox="0 0 24 24">
  <path id="Path_54" data-name="Path 54" d="M25.972,21.928c.033,0,.066,0,.1,0h7.554a1.575,1.575,0,0,0,1.6-1.541V3.547a1.575,1.575,0,0,0-1.6-1.541H26.071c-.033,0-.066,0-.1,0V0L11.228,1.893V22.058L25.972,24Zm.1-19.041h7.554a.675.675,0,0,1,.687.661V20.391a.675.675,0,0,1-.687.661H26.071a.7.7,0,0,1-.1-.01V15.036h4.433V14.2h3.468V13.073H31.935v-.448H32.7v-.332h-.765v-.386H32.7v-.332h-.765V11.2H32.7v-.332h-.765v-.291h1.938V9.444H30.406v1.131h1.173v2.5H30.406v1.081H25.972v-.4h3.542V9.9H25.972V9.445h4.433V8.561H25.972V2.9A.7.7,0,0,1,26.071,2.887ZM14.53,14.709a5.966,5.966,0,0,1-.309-1.069c-.118-.568-.307-.725-.709-.735l-.3,0v1.77l-.958-.026V10.253a8.213,8.213,0,0,1,1.292-.122,2.176,2.176,0,0,1,1.43.329,1.161,1.161,0,0,1,.415.957,1.218,1.218,0,0,1-.793,1.133v.02a1.169,1.169,0,0,1,.6.862c.141.521.282,1.126.369,1.307Zm4.507.122L18.661,13.6l-1.37-.02-.334,1.2-1.086-.03L17.29,10.08l1.421-.032,1.531,4.816Zm4.617.125a6.1,6.1,0,0,1-.373-1.175c-.142-.625-.371-.8-.855-.808l-.357,0v1.942l-1.152-.031V10.065a10.818,10.818,0,0,1,1.555-.137,2.822,2.822,0,0,1,1.726.358,1.224,1.224,0,0,1,.5,1.051,1.354,1.354,0,0,1-.959,1.245V12.6a1.3,1.3,0,0,1,.724.949,14.3,14.3,0,0,0,.447,1.438Z" transform="translate(-11.228)" fill="#b81e9e"/>
  <path id="Path_55" data-name="Path 55" d="M158.394,266.506h-.014c-.073.3-.144.676-.223.965l-.286,1.055,1.073.007-.3-1.064C158.553,267.172,158.466,266.8,158.394,266.506Z" transform="translate(-151.659 -255.691)" fill="#b81e9e"/>
  <path id="Path_56" data-name="Path 56" d="M267.511,263.828a3.073,3.073,0,0,0-.543.047v1.438h.472c.6,0,.966-.3.966-.761C268.406,264.065,268.069,263.828,267.511,263.828Z" transform="translate(-256.136 -253.107)" fill="#b81e9e"/>
  <path id="Path_57" data-name="Path 57" d="M58.572,267a2.33,2.33,0,0,0-.451.042v1.31h.392c.5,0,.8-.272.8-.692C59.314,267.214,59.034,267,58.572,267Z" transform="translate(-56.105 -256.144)" fill="#b81e9e"/>
</svg>
