<?xml version="1.0" encoding="utf-8"?>
<!-- Generator: Adobe Illustrator 24.2.3, SVG Export Plug-In . SVG Version: 6.00 Build 0)  -->
<svg version="1.1" id="Layer_1" xmlns="http://www.w3.org/2000/svg" xmlns:xlink="http://www.w3.org/1999/xlink" x="0px"
  y="0px" viewBox="0 0 60 60" style="enable-background: new 0 0 60 60" xml:space="preserve">
  <style type="text/css">
    .st0 {
      fill: #ffffff;
    }

    .st1 {
      fill: #f3f1ed;
    }

    .st2 {
      fill: #eca200;
    }

    .st3 {
      fill: #111111;
    }
  </style>
  <g id="Layer_2_1_">
    <g id="Group_473" transform="translate(697.36 -152.272)">
      <path id="Path_276" class="st0" d="M-655.1,202.9h-24.7c-4.5,0-8.1-3.6-8.1-8.1v-12.1c0-4.5,3.6-8.1,8.1-8.1h24.7
			c4.5,0,8.1,3.6,8.1,8.1v12.1C-647,199.3-650.6,202.9-655.1,202.9z" />
      <path id="Path_277" class="st1" d="M-679.8,198.9c-2.2,0-4-1.8-4-4v-12.1c0-2.2,1.8-4,4-4h24.7c2.2,0,4,1.8,4,4v12.1
			c0,2.2-1.8,4-4,4L-679.8,198.9z" />
      <path id="Path_278" class="st2" d="M-687.8,184.1v9c-2.5,0-4.5-2-4.5-4.5c0,0,0,0,0,0C-692.3,186.1-690.3,184.1-687.8,184.1
			C-687.9,184.1-687.9,184.1-687.8,184.1z" />
      <path id="Path_279" class="st2" d="M-642.5,188.6c0,2.5-2,4.5-4.5,4.5c0,0,0,0,0,0v-9C-644.5,184.1-642.5,186.1-642.5,188.6
			C-642.5,188.6-642.5,188.6-642.5,188.6z" />
      <path id="Path_280" class="st2" d="M-667.4,170.2c-2.5,0-4.5,2-4.5,4.5c0,0,0,0,0,0h9C-662.9,172.2-664.9,170.2-667.4,170.2
			C-667.4,170.2-667.4,170.2-667.4,170.2z" />
      <circle id="Ellipse_255" class="st2" cx="-667.4" cy="162.7" r="2.1" />
      <g id="Group_472" transform="translate(-697.36 152.272)">
        <path id="Path_281" class="st3" d="M21.8,31.8c-1.4,0-2.5,1.1-2.5,2.5c0,1.4,1.1,2.5,2.5,2.5c1.4,0,2.5-1.1,2.5-2.5
				C24.3,32.9,23.1,31.8,21.8,31.8z" />
        <circle id="Ellipse_256" class="st3" cx="38.1" cy="34.3" r="2.5" />
        <path id="Path_282" class="st3" d="M32,39.7c-0.5,0.6-1.3,1-2.1,1c-0.8,0-1.6-0.3-2.1-0.9c-0.2-0.3-0.6-0.3-0.8-0.1
				c-0.3,0.2-0.3,0.6-0.1,0.8c0,0,0,0,0,0c0.7,0.9,1.9,1.4,3,1.4c1.2,0,2.3-0.5,3-1.4c0.2-0.3,0.1-0.6-0.1-0.8
				C32.6,39.4,32.2,39.5,32,39.7L32,39.7z" />
        <path id="Path_283" class="st3" d="M51,31.3v-0.9c0-4.8-3.9-8.7-8.7-8.7H35c-0.3-2.3-2.1-4.2-4.4-4.4v-4.3
				c1.2-0.3,2.1-1.4,2.1-2.6c0-1.5-1.2-2.7-2.7-2.7c-1.5,0-2.7,1.2-2.7,2.7c0,1.2,0.9,2.3,2.1,2.6v4.3c-2.3,0.3-4.2,2.1-4.4,4.4
				h-7.3c-4.8,0-8.7,3.9-8.7,8.7v0.9c-2.6,0.3-4.5,2.5-4.5,5c0,2.6,1.9,4.7,4.5,5v1.2c0,4.8,3.9,8.7,8.7,8.7h24.7
				c4.8,0,8.7-3.9,8.7-8.7v-1.2c2.6-0.3,4.5-2.5,4.5-5C55.4,33.8,53.5,31.6,51,31.3z M28.5,10.5c0-0.8,0.7-1.5,1.5-1.5
				c0.8,0,1.5,0.7,1.5,1.5c0,0.8-0.7,1.5-1.5,1.5C29.1,12,28.5,11.3,28.5,10.5L28.5,10.5z M29.9,18.5c1.9,0,3.6,1.4,3.9,3.3h-7.7
				C26.4,19.9,28,18.5,29.9,18.5z M5.6,36.3c0-1.9,1.4-3.6,3.3-3.9v7.7C7,39.9,5.6,38.3,5.6,36.3L5.6,36.3z M49.8,42.6
				c0,4.1-3.4,7.5-7.5,7.5H17.6c-4.1,0-7.5-3.4-7.5-7.5V30.5c0-4.1,3.4-7.5,7.5-7.5h24.7c4.1,0,7.5,3.4,7.5,7.5V42.6L49.8,42.6z
				 M51,40.2v-7.7c1.9,0.3,3.3,1.9,3.3,3.9C54.3,38.3,52.9,39.9,51,40.2L51,40.2z" />
      </g>
    </g>
  </g>
</svg>