<svg id="txt" xmlns="http://www.w3.org/2000/svg" width="24" height="24" viewBox="0 0 24 24">
  <path id="Path_58" data-name="Path 58" d="M25.92,21.928c.033,0,.066,0,.1,0h7.554a1.575,1.575,0,0,0,1.6-1.541V3.547a1.575,1.575,0,0,0-1.6-1.541H26.019c-.033,0-.066,0-.1,0V0L11.176,1.893V22.058L25.92,24Zm.1-19.041h7.554a.675.675,0,0,1,.687.661V20.391a.675.675,0,0,1-.687.661H26.019a.685.685,0,0,1-.1-.01V15.663h7.032a.294.294,0,1,0,0-.587H25.92v-1.8h7.032a.294.294,0,1,0,0-.587H25.92V10.947h7.032a.294.294,0,1,0,0-.587H25.92V8.6H29.7a.293.293,0,1,0,0-.586H25.92V2.9A.707.707,0,0,1,26.019,2.887Zm-10.545,7.66-1.229.019v3.7l-1-.024V10.582l-1.153.019V9.754l3.38-.085v.879h0Zm3.177,3.823-.439-.872c-.178-.334-.293-.583-.428-.858h-.014c-.1.274-.22.518-.368.846l-.393.845-1.2-.028,1.348-2.35-1.3-2.293,1.21-.03.413.851c.143.286.248.516.362.782h.014c.115-.3.207-.517.329-.794l.41-.878,1.274-.033-1.389,2.365L19.942,14.4Zm5.6-3.963-1.468.023V14.47l-1.189-.029V10.45l-1.371.022V9.548l4.029-.1v.96h0Z" transform="translate(-11.176)" fill="#909090"/>
</svg>
