<svg xmlns="http://www.w3.org/2000/svg" width="23.999" height="24" viewBox="0 0 23.999 24">
  <path id="Union_2" data-name="Union 2" d="M-1869.258,2468l-14.742-1.94v-20.167l14.744-1.894v2.011h.009l.032,0,.058,0h7.555a1.575,1.575,0,0,1,1.6,1.543v16.844a1.575,1.575,0,0,1-1.6,1.542h-7.555l-.067,0h-.01l-.023,0V2468h0Zm0-2.956.014,0a.6.6,0,0,0,.085.007h7.555a.674.674,0,0,0,.687-.66v-16.844a.675.675,0,0,0-.687-.662h-7.555a.576.576,0,0,0-.087.009l-.012,0v4.545h.233a.5.5,0,0,1,.5.5.5.5,0,0,1-.5.5h-.233v2h.233a.5.5,0,0,1,.5.5.5.5,0,0,1-.5.5h-.233v2h.233a.5.5,0,0,1,.5.5.5.5,0,0,1-.5.5h-.233ZM-1882,2452.812v.471h10v-.582Zm0-2.675V2452h10v-2.3Zm14.28,8.3a.5.5,0,0,1-.5-.5.5.5,0,0,1,.5-.5h4.7a.5.5,0,0,1,.5.5.5.5,0,0,1-.5.5Zm0-3a.5.5,0,0,1-.5-.5.5.5,0,0,1,.5-.5h4.7a.5.5,0,0,1,.5.5.5.5,0,0,1-.5.5Zm0-3a.5.5,0,0,1-.5-.5.5.5,0,0,1,.5-.5h4.7a.5.5,0,0,1,.5.5.5.5,0,0,1-.5.5Z" transform="translate(1884 -2444)"/>
</svg>
