<?xml version="1.0" encoding="utf-8"?>
<!-- Generator: Adobe Illustrator 25.2.1, SVG Export Plug-In . SVG Version: 6.00 Build 0)  -->
<svg version="1.1" id="Layer_1" xmlns="http://www.w3.org/2000/svg" xmlns:xlink="http://www.w3.org/1999/xlink" x="0px" y="0px"
	 viewBox="0 0 24 24" style="enable-background:new 0 0 24 24;" xml:space="preserve">
<style type="text/css">
	.st0{fill-rule:evenodd;clip-rule:evenodd;fill:#ED9801;}
	.st1{fill:#FFFFFF;}
</style>
<g>
	<path class="st0" d="M23.2,14l-1.3,1.3c-0.3,0.3-0.4,0.6-0.4,1v2.4c0,1.5-1.3,2.8-2.8,2.8h-2.4c-0.4,0-0.7,0.2-1,0.4L14,23.2
		c-1.1,1.1-2.9,1.1-3.9,0l-1.3-1.3c-0.3-0.3-0.6-0.4-1-0.4H5.3c-1.5,0-2.8-1.3-2.8-2.8v-2.4c0-0.4-0.2-0.7-0.4-1L0.8,14
		c-1.1-1.1-1.1-2.9,0-3.9l1.3-1.3c0.3-0.3,0.4-0.6,0.4-1V5.3c0-1.5,1.3-2.8,2.8-2.8h2.4c0.4,0,0.7-0.2,1-0.4l1.3-1.3
		c1.1-1.1,2.9-1.1,3.9,0l1.3,1.3c0.3,0.3,0.6,0.4,1,0.4h2.4c1.5,0,2.8,1.3,2.8,2.8v2.4c0,0.4,0.2,0.7,0.4,1l1.3,1.3
		C24.3,11.1,24.3,12.9,23.2,14L23.2,14z"/>
	<path class="st1" d="M10.3,16.3c-0.3,0-0.6-0.1-0.8-0.3l-3.2-3.2c-0.4-0.4-0.4-1.2,0-1.6s1.2-0.4,1.6,0l2.4,2.4l5.9-5.9
		c0.4-0.4,1.2-0.4,1.6,0c0.4,0.4,0.4,1.2,0,1.6L11.1,16C10.8,16.2,10.6,16.3,10.3,16.3z"/>
</g>
</svg>
