<?xml version="1.0" encoding="utf-8"?>
<!-- Generator: Adobe Illustrator 24.1.2, SVG Export Plug-In . SVG Version: 6.00 Build 0)  -->
<svg version="1.1" id="Layer_1" xmlns="http://www.w3.org/2000/svg" xmlns:xlink="http://www.w3.org/1999/xlink" x="0px" y="0px"
	 viewBox="0 0 512 512" style="enable-background:new 0 0 512 512;" xml:space="preserve">
<style type="text/css">
	.st0{fill:#1565C0;}
	.st1{fill:#FAFAFA;}
</style>
<g>
	<g>
		<path class="st0" d="M294.4,12.8c-2.1-2.1-6.4-2.1-8.5-2.1L8.5,74.7C4.3,76.8,0,81.1,0,85.3V448c0,4.3,4.3,10.7,8.5,10.7
			l277.3,42.7c6.4,0,10.7-2.1,12.8-8.5v-2.1V21.3C298.7,19.2,296.5,14.9,294.4,12.8z"/>
		<path class="st0" d="M501.3,458.7H288c-6.4,0-10.7-4.3-10.7-10.7c0-6.4,4.3-10.7,10.7-10.7h202.7V74.7H288
			c-6.4,0-10.7-4.3-10.7-10.7c0-6.4,4.3-10.7,10.7-10.7h213.3c6.4,0,10.7,4.3,10.7,10.7v384C512,454.4,505.6,458.7,501.3,458.7z"/>
	</g>
	<path class="st1" d="M181.3,352c-4.3,0-8.5-2.1-10.7-8.5l-32-113.1l-32,113.1c-2.1,6.4-8.5,8.5-14.9,6.4c-2.1-2.1-4.3-4.3-6.4-6.4
		L42.7,194.1c-2.1-6.4,2.1-10.7,6.4-12.8s10.7,2.1,12.8,6.4l0,0l32,113.1l32-113.1c2.1-6.4,8.5-8.5,14.9-6.4
		c2.1,2.1,4.3,4.3,6.4,6.4l32,113.1l32-113.1c2.1-6.4,6.4-8.5,12.8-6.4l0,0c6.4,2.1,8.5,8.5,6.4,12.8l-42.7,149.3
		C189.9,349.9,185.6,352,181.3,352z"/>
	<g>
		<path class="st0" d="M458.7,138.7H288c-6.4,0-10.7-4.3-10.7-10.7c0-6.4,4.3-10.7,10.7-10.7h170.7c6.4,0,10.7,4.3,10.7,10.7
			C469.3,134.4,462.9,138.7,458.7,138.7z"/>
		<path class="st0" d="M458.7,202.7H288c-6.4,0-10.7-4.3-10.7-10.7c0-6.4,4.3-10.7,10.7-10.7h170.7c6.4,0,10.7,4.3,10.7,10.7
			C469.3,198.4,462.9,202.7,458.7,202.7z"/>
		<path class="st0" d="M458.7,266.7H288c-6.4,0-10.7-4.3-10.7-10.7c0-6.4,4.3-10.7,10.7-10.7h170.7c6.4,0,10.7,4.3,10.7,10.7
			C469.3,262.4,462.9,266.7,458.7,266.7z"/>
		<path class="st0" d="M458.7,330.7H288c-6.4,0-10.7-4.3-10.7-10.7c0-6.4,4.3-10.7,10.7-10.7h170.7c6.4,0,10.7,4.3,10.7,10.7
			C469.3,326.4,462.9,330.7,458.7,330.7z"/>
		<path class="st0" d="M458.7,394.7H288c-6.4,0-10.7-4.3-10.7-10.7c0-6.4,4.3-10.7,10.7-10.7h170.7c6.4,0,10.7,4.3,10.7,10.7
			C469.3,390.4,462.9,394.7,458.7,394.7z"/>
	</g>
</g>
</svg>
