<?xml version="1.0" encoding="utf-8"?>
<!-- Generator: Adobe Illustrator 24.1.2, SVG Export Plug-In . SVG Version: 6.00 Build 0)  -->
<svg version="1.1" id="Layer_1" xmlns="http://www.w3.org/2000/svg" xmlns:xlink="http://www.w3.org/1999/xlink" x="0px" y="0px"
	 viewBox="0 0 512 512" style="enable-background:new 0 0 512 512;" xml:space="preserve">
<style type="text/css">
	.st0{fill:#4CAF50;}
	.st1{fill:#FAFAFA;}
</style>
<g>
	<g>
		<path class="st0" d="M294.3,12.9c-2.1-2.1-6.4-2.1-8.5-2.1L8.7,74.7c-4.3,2.1-8.5,6.4-8.5,10.7v362.3c0,4.3,4.3,10.7,8.5,10.7
			L285.7,501c6.4,0,10.7-2.1,12.8-8.5v-2.1V21.4C298.5,19.3,296.4,15,294.3,12.9z"/>
		<path class="st0" d="M501,458.4H287.9c-6.4,0-10.7-4.3-10.7-10.7c0-6.4,4.3-10.7,10.7-10.7h202.5V74.7H287.9
			c-6.4,0-10.7-4.3-10.7-10.7s4.3-10.7,10.7-10.7H501c6.4,0,10.7,4.3,10.7,10.7v383.7C511.7,454.1,505.3,458.4,501,458.4z"/>
	</g>
	<g>
		<path class="st1" d="M202.6,351.8c-4.3,0-6.4-2.1-8.5-4.3L87.5,177c-4.3-4.3-2.1-10.7,2.1-14.9s10.7-2.1,14.9,2.1l0,0l106.6,170.5
			c2.1,4.3,2.1,10.7-4.3,14.9C204.7,351.8,202.6,351.8,202.6,351.8z"/>
		<path class="st1" d="M96,351.8c-6.4,0-10.7-4.3-10.7-10.7c0-2.1,0-4.3,2.1-6.4l106.6-170.5c2.1-4.3,8.5-6.4,14.9-4.3
			c4.3,2.1,6.4,8.5,4.3,14.9l0,0L106.7,345.4C102.4,349.7,98.2,351.8,96,351.8z"/>
	</g>
	<g>
		<path class="st0" d="M373.1,458.4c-6.4,0-10.7-4.3-10.7-10.7V64.1c0-6.4,4.3-10.7,10.7-10.7c6.4,0,10.7,4.3,10.7,10.7v383.7
			C383.8,454.1,377.4,458.4,373.1,458.4z"/>
		<path class="st0" d="M501,394.4H287.9c-6.4,0-10.7-4.3-10.7-10.7c0-6.4,4.3-10.7,10.7-10.7H501c6.4,0,10.7,4.3,10.7,10.7
			C511.7,390.2,505.3,394.4,501,394.4z"/>
		<path class="st0" d="M501,330.5H287.9c-6.4,0-10.7-4.3-10.7-10.7c0-6.4,4.3-10.7,10.7-10.7H501c6.4,0,10.7,4.3,10.7,10.7
			C511.7,326.2,505.3,330.5,501,330.5z"/>
		<path class="st0" d="M501,266.6H287.9c-6.4,0-10.7-4.3-10.7-10.7s4.3-10.7,10.7-10.7H501c6.4,0,10.7,4.3,10.7,10.7
			C511.7,262.3,505.3,266.6,501,266.6z"/>
		<path class="st0" d="M501,202.6H287.9c-6.4,0-10.7-4.3-10.7-10.7c0-6.4,4.3-10.7,10.7-10.7H501c6.4,0,10.7,4.3,10.7,10.7
			C511.7,198.3,505.3,202.6,501,202.6z"/>
		<path class="st0" d="M501,138.7H287.9c-6.4,0-10.7-4.3-10.7-10.7s4.3-10.7,10.7-10.7H501c6.4,0,10.7,4.3,10.7,10.7
			C511.7,134.4,505.3,138.7,501,138.7z"/>
	</g>
</g>
</svg>
