<?xml version="1.0" encoding="utf-8"?>
<!-- Generator: Adobe Illustrator 25.2.1, SVG Export Plug-In . SVG Version: 6.00 Build 0)  -->
<svg version="1.1" id="Layer_1" xmlns="http://www.w3.org/2000/svg" xmlns:xlink="http://www.w3.org/1999/xlink" x="0px" y="0px"
	 viewBox="0 0 24 24" style="enable-background:new 0 0 24 24;" xml:space="preserve">
<style type="text/css">
	.st0{fill:#AB9364;}
</style>
<path class="st0" d="M12.5,0.9L15,8.6c0.1,0.2,0.3,0.3,0.5,0.3h8.1c0.5,0,0.7,0.6,0.3,0.9l-6.5,4.8c-0.2,0.1-0.2,0.3-0.2,0.5
	l2.5,7.7c0.1,0.5-0.4,0.8-0.8,0.5l-6.5-4.8c-0.2-0.1-0.4-0.1-0.6,0l-6.5,4.8c-0.4,0.3-0.9-0.1-0.8-0.5l2.5-7.7
	c0.1-0.2,0-0.4-0.2-0.5L0.2,9.8C-0.2,9.5,0,8.9,0.5,8.9h8.1C8.8,8.9,9,8.8,9,8.6l2.5-7.7C11.7,0.5,12.3,0.5,12.5,0.9z"/>
</svg>
