<svg id="png" xmlns="http://www.w3.org/2000/svg" width="24" height="24" viewBox="0 0 24 24">
  <path id="Path_49" data-name="Path 49" d="M51.491,245.14a1.514,1.514,0,0,0-.4.049v1.382a1.365,1.365,0,0,0,.324.027.75.75,0,0,0,.846-.775C52.259,245.387,51.981,245.132,51.491,245.14Z" transform="translate(-49.372 -235.129)" fill="#00bd98"/>
  <path id="Path_50" data-name="Path 50" d="M25.914,21.928c.033,0,.066,0,.1,0h7.554a1.575,1.575,0,0,0,1.6-1.541V3.547a1.575,1.575,0,0,0-1.6-1.541H26.013c-.033,0-.067,0-.1,0V0L11.17,1.893V22.058L25.914,24Zm8.34-10.114H32.584V10.077h1.671ZM32.6,13.551h1.657v1.737H32.6ZM26.013,2.887h7.554a.675.675,0,0,1,.687.661V8.382h-1.5a.464.464,0,0,1-.19-.041v1.737H30.778v1.737h1.787v1.737H30.791v1.737h1.788v1.737h1.676v3.366a.675.675,0,0,1-.687.661H26.013a.717.717,0,0,1-.1-.01V17.025h1.257V15.288H25.914V13.551h1.244V11.814H25.914V10.077h1.244V8.34H25.914V2.9A.707.707,0,0,1,26.013,2.887ZM14.607,11.739a1.952,1.952,0,0,1-1.409.468,2.286,2.286,0,0,1-.329-.022V13.78l-.94-.023V9.4a7.461,7.461,0,0,1,1.287-.124,1.983,1.983,0,0,1,1.325.331,1.322,1.322,0,0,1,.472,1.047A1.481,1.481,0,0,1,14.607,11.739Zm4.938,2.205L18.4,13.916l-1.01-1.831a17.526,17.526,0,0,1-.805-1.644l-.02.007c.027.613.041,1.267.041,2.025v1.4l-.946-.023v-4.6l1.205-.03.97,1.7a13.627,13.627,0,0,1,.777,1.62h.021a17.4,17.4,0,0,1-.092-1.977V9.18l1.005-.025v4.79h0Zm5.32-.1a6.284,6.284,0,0,1-1.784.24,3.009,3.009,0,0,1-2.092-.709,2.331,2.331,0,0,1-.705-1.767c.007-1.6,1.223-2.551,2.921-2.594a3.861,3.861,0,0,1,1.483.209l-.257.916a3.1,3.1,0,0,0-1.241-.2,1.552,1.552,0,0,0-1.712,1.608A1.535,1.535,0,0,0,23.1,13.177a1.682,1.682,0,0,0,.588-.064V12.068l-.814,0v-.875l1.987-.007v2.661Z" transform="translate(-11.17)" fill="#00bd98"/>
  <path id="Path_51" data-name="Path 51" d="M513.527,203.609h0Z" transform="translate(-492.159 -195.269)" fill="#00bd98"/>
  <path id="Path_52" data-name="Path 52" d="M388.727,168.5h-1.791v1.823h1.8v1.824h1.823v-1.824h-1.8V168.5h1.791v-1.824h-1.8v-1.824h1.8v-1.823h-1.8V161.2h-1.824v1.824h1.8v1.823h-1.8v1.824h1.8Z" transform="translate(-370.949 -154.85)" fill="#00bd98"/>
  <path id="Path_53" data-name="Path 53" d="M471.605,161.2v1.824h1.8l0-1.824Z" transform="translate(-452.04 -154.624)" fill="#00bd98"/>
</svg>
