<?xml version="1.0" encoding="utf-8"?>
<!-- Generator: Adobe Illustrator 24.1.2, SVG Export Plug-In . SVG Version: 6.00 Build 0)  -->
<svg version="1.1" id="Layer_1" xmlns="http://www.w3.org/2000/svg" xmlns:xlink="http://www.w3.org/1999/xlink" x="0px" y="0px"
	 viewBox="0 0 512 512" style="enable-background:new 0 0 512 512;" xml:space="preserve">
<style type="text/css">
	.st0{fill:#E2574C;}
	.st1{fill:#B53629;}
	.st2{fill:#FFFFFF;}
</style>
<g>
	<path class="st0" d="M73,10.8h259.4l137.3,137.4v322.6c0,17.4-13.1,30.6-30.6,30.6H73c-17.5-0.1-30.6-13.2-30.6-30.7V41.4
		C42.4,23.9,55.4,10.8,73,10.8z"/>
	<path class="st1" d="M469.6,148.2H362.8c-17.4,0-30.6-13.1-30.6-30.6V10.8L469.6,148.2z"/>
	<path class="st2" d="M356.3,241.8c4.4,0,8.7-4.4,8.7-8.7c0-4.4-2.2-8.7-8.7-8.7h-28.4c-6.5,0-8.7,4.4-8.7,10.9v71.9
		c0,6.5,4.4,10.9,8.7,10.9c4.4,0,8.7-4.4,8.7-10.9v-19.6h17.4c6.5,0,8.7-4.4,8.7-8.7c0-4.4-2.2-8.7-8.7-8.7h-17.4v-28.4L356.3,241.8
		L356.3,241.8z M256,224.4h-21.8c-6.5,0-10.9,4.4-10.9,10.9v71.9c0,6.5,6.5,8.7,10.9,8.7H256c26.1,0,43.6-17.4,43.6-43.6
		C301.8,244,286.6,224.4,256,224.4z M258.2,298.5h-13.1v-56.7H256c17.4,0,26.1,10.9,26.1,28.4C282.1,285.4,273.4,298.5,258.2,298.5z
		 M179.8,224.4h-21.8c-6.5,0-8.7,4.4-8.7,10.9v71.9c0,6.5,4.4,10.9,8.7,10.9c4.4,0,8.7-4.4,8.7-10.9v-21.8h13.1
		c17.4,0,30.6-10.9,30.6-30.6C210.2,237.5,197.2,224.4,179.8,224.4z M179.8,268h-13.1v-26.1h13.1c6.5,0,13.1,6.5,13.1,13.1
		C190.6,263.7,186.3,268,179.8,268z"/>
</g>
</svg>
